<mxfile host="app.diagrams.net" agent="Mozilla/5.0 (Macintosh; Intel Mac OS X 10_15_7) AppleWebKit/537.36 (KHTML, like Gecko) Chrome/129.0.0.0 Safari/537.36" version="24.7.17">
  <diagram name="Page-1" id="_4eVx1RQGgkWhi7u0Qy6">
    <mxGraphModel dx="1434" dy="710" grid="1" gridSize="10" guides="1" tooltips="1" connect="1" arrows="1" fold="1" page="1" pageScale="1" pageWidth="1390" pageHeight="980" math="0" shadow="0">
      <root>
        <mxCell id="0" />
        <mxCell id="1" parent="0" />
        <mxCell id="Tgi4yXNui1qYUQN6Xeth-1" value="Usage is expressed in Request Units" style="text;html=1;align=center;verticalAlign=middle;whiteSpace=wrap;rounded=0;strokeColor=default;fillColor=default;fontSize=16;" vertex="1" parent="1">
          <mxGeometry x="80" y="80" width="300" height="40" as="geometry" />
        </mxCell>
        <mxCell id="Tgi4yXNui1qYUQN6Xeth-2" value="Database operations consume a variable number of RUs" style="text;html=1;align=center;verticalAlign=middle;whiteSpace=wrap;rounded=0;strokeColor=default;fillColor=default;fontSize=16;" vertex="1" parent="1">
          <mxGeometry x="530" y="80" width="320" height="40" as="geometry" />
        </mxCell>
        <mxCell id="Tgi4yXNui1qYUQN6Xeth-3" value="" style="html=1;verticalLabelPosition=bottom;align=center;labelBackgroundColor=#ffffff;verticalAlign=top;strokeWidth=2;strokeColor=#0080F0;shadow=0;dashed=0;shape=mxgraph.ios7.icons.data;" vertex="1" parent="1">
          <mxGeometry x="90" y="170" width="40" height="40" as="geometry" />
        </mxCell>
        <mxCell id="Tgi4yXNui1qYUQN6Xeth-8" value="% Memory" style="text;html=1;align=center;verticalAlign=middle;whiteSpace=wrap;rounded=0;" vertex="1" parent="1">
          <mxGeometry x="100" y="270" width="60" height="30" as="geometry" />
        </mxCell>
        <mxCell id="Tgi4yXNui1qYUQN6Xeth-9" value="% CPU" style="text;html=1;align=center;verticalAlign=middle;whiteSpace=wrap;rounded=0;" vertex="1" parent="1">
          <mxGeometry x="200" y="270" width="60" height="30" as="geometry" />
        </mxCell>
        <mxCell id="Tgi4yXNui1qYUQN6Xeth-10" value="% IOPS" style="text;html=1;align=center;verticalAlign=middle;whiteSpace=wrap;rounded=0;" vertex="1" parent="1">
          <mxGeometry x="300" y="270" width="60" height="30" as="geometry" />
        </mxCell>
        <mxCell id="Tgi4yXNui1qYUQN6Xeth-11" value="" style="rounded=0;whiteSpace=wrap;html=1;" vertex="1" parent="1">
          <mxGeometry x="80" y="300" width="300" height="120" as="geometry" />
        </mxCell>
        <mxCell id="Tgi4yXNui1qYUQN6Xeth-13" value="" style="html=1;verticalLabelPosition=bottom;align=center;labelBackgroundColor=#ffffff;verticalAlign=top;strokeWidth=2;strokeColor=#0080F0;shadow=0;dashed=0;shape=mxgraph.ios7.icons.data;" vertex="1" parent="1">
          <mxGeometry x="110" y="330" width="40" height="40" as="geometry" />
        </mxCell>
        <mxCell id="Tgi4yXNui1qYUQN6Xeth-14" value="&lt;font style=&quot;font-size: 18px;&quot;&gt;Request Unit (RUs)&lt;/font&gt;" style="text;html=1;align=center;verticalAlign=middle;whiteSpace=wrap;rounded=0;fillColor=default;gradientColor=#191919;fontColor=#FFFFFF;" vertex="1" parent="1">
          <mxGeometry x="80" y="390" width="300" height="30" as="geometry" />
        </mxCell>
        <mxCell id="Tgi4yXNui1qYUQN6Xeth-15" value="" style="pointerEvents=1;shadow=0;dashed=0;html=1;strokeColor=none;fillColor=#4495D1;labelPosition=center;verticalLabelPosition=bottom;verticalAlign=top;align=center;outlineConnect=0;shape=mxgraph.veeam.cpu;" vertex="1" parent="1">
          <mxGeometry x="207.60000000000002" y="167.6" width="44.8" height="44.8" as="geometry" />
        </mxCell>
        <mxCell id="Tgi4yXNui1qYUQN6Xeth-19" value="" style="pointerEvents=1;shadow=0;dashed=0;html=1;strokeColor=none;fillColor=#4495D1;labelPosition=center;verticalLabelPosition=bottom;verticalAlign=top;align=center;outlineConnect=0;shape=mxgraph.veeam.cpu;" vertex="1" parent="1">
          <mxGeometry x="190.00000000000003" y="310" width="44.8" height="44.8" as="geometry" />
        </mxCell>
        <mxCell id="Tgi4yXNui1qYUQN6Xeth-20" value="" style="pointerEvents=1;shadow=0;dashed=0;html=1;strokeColor=none;fillColor=#4495D1;labelPosition=center;verticalLabelPosition=bottom;verticalAlign=top;align=center;outlineConnect=0;shape=mxgraph.veeam.cpu;" vertex="1" parent="1">
          <mxGeometry x="215.20000000000002" y="330" width="44.8" height="44.8" as="geometry" />
        </mxCell>
        <mxCell id="Tgi4yXNui1qYUQN6Xeth-25" value="" style="endArrow=none;dashed=1;html=1;dashPattern=1 3;strokeWidth=2;rounded=0;entryX=0.475;entryY=1.075;entryDx=0;entryDy=0;entryPerimeter=0;exitX=0.5;exitY=0;exitDx=0;exitDy=0;startArrow=oval;startFill=0;" edge="1" parent="1" source="Tgi4yXNui1qYUQN6Xeth-8" target="Tgi4yXNui1qYUQN6Xeth-3">
          <mxGeometry width="50" height="50" relative="1" as="geometry">
            <mxPoint x="105" y="270" as="sourcePoint" />
            <mxPoint x="155" y="220" as="targetPoint" />
          </mxGeometry>
        </mxCell>
        <mxCell id="Tgi4yXNui1qYUQN6Xeth-26" value="" style="endArrow=none;dashed=1;html=1;dashPattern=1 3;strokeWidth=2;rounded=0;startArrow=oval;startFill=0;" edge="1" parent="1">
          <mxGeometry width="50" height="50" relative="1" as="geometry">
            <mxPoint x="240" y="270" as="sourcePoint" />
            <mxPoint x="230" y="220" as="targetPoint" />
          </mxGeometry>
        </mxCell>
        <mxCell id="Tgi4yXNui1qYUQN6Xeth-27" value="" style="endArrow=none;dashed=1;html=1;dashPattern=1 3;strokeWidth=2;rounded=0;entryX=0.475;entryY=1.075;entryDx=0;entryDy=0;entryPerimeter=0;exitX=0.75;exitY=0;exitDx=0;exitDy=0;startArrow=oval;startFill=0;" edge="1" parent="1" source="Tgi4yXNui1qYUQN6Xeth-10">
          <mxGeometry width="50" height="50" relative="1" as="geometry">
            <mxPoint x="349.25" y="290" as="sourcePoint" />
            <mxPoint x="328.25" y="233" as="targetPoint" />
          </mxGeometry>
        </mxCell>
        <mxCell id="Tgi4yXNui1qYUQN6Xeth-28" value="" style="endArrow=classicThin;dashed=1;html=1;dashPattern=1 3;strokeWidth=2;rounded=0;exitX=0.477;exitY=1.067;exitDx=0;exitDy=0;exitPerimeter=0;endFill=0;" edge="1" parent="1" source="Tgi4yXNui1qYUQN6Xeth-14">
          <mxGeometry width="50" height="50" relative="1" as="geometry">
            <mxPoint x="250" y="500" as="sourcePoint" />
            <mxPoint x="680" y="200" as="targetPoint" />
            <Array as="points">
              <mxPoint x="223" y="520" />
              <mxPoint x="480" y="520" />
              <mxPoint x="480" y="160" />
              <mxPoint x="680" y="160" />
            </Array>
          </mxGeometry>
        </mxCell>
        <mxCell id="Tgi4yXNui1qYUQN6Xeth-29" value="Read" style="text;html=1;align=center;verticalAlign=middle;whiteSpace=wrap;rounded=0;" vertex="1" parent="1">
          <mxGeometry x="560" y="210" width="60" height="30" as="geometry" />
        </mxCell>
        <mxCell id="Tgi4yXNui1qYUQN6Xeth-30" value="=" style="text;html=1;align=center;verticalAlign=middle;whiteSpace=wrap;rounded=0;" vertex="1" parent="1">
          <mxGeometry x="620" y="210" width="40" height="30" as="geometry" />
        </mxCell>
        <mxCell id="Tgi4yXNui1qYUQN6Xeth-38" value="" style="image;aspect=fixed;html=1;points=[];align=center;fontSize=12;image=img/lib/azure2/general/Input_Output.svg;" vertex="1" parent="1">
          <mxGeometry x="300" y="160" width="34.91" height="30" as="geometry" />
        </mxCell>
        <mxCell id="Tgi4yXNui1qYUQN6Xeth-39" value="" style="image;aspect=fixed;html=1;points=[];align=center;fontSize=12;image=img/lib/azure2/general/Input_Output.svg;rotation=-180;" vertex="1" parent="1">
          <mxGeometry x="320" y="190" width="34.91" height="30" as="geometry" />
        </mxCell>
        <mxCell id="Tgi4yXNui1qYUQN6Xeth-40" value="" style="image;aspect=fixed;html=1;points=[];align=center;fontSize=12;image=img/lib/azure2/general/Input_Output.svg;" vertex="1" parent="1">
          <mxGeometry x="310" y="310" width="34.91" height="30" as="geometry" />
        </mxCell>
        <mxCell id="Tgi4yXNui1qYUQN6Xeth-41" value="" style="image;aspect=fixed;html=1;points=[];align=center;fontSize=12;image=img/lib/azure2/general/Input_Output.svg;rotation=-180;" vertex="1" parent="1">
          <mxGeometry x="330" y="340" width="34.91" height="30" as="geometry" />
        </mxCell>
        <mxCell id="Tgi4yXNui1qYUQN6Xeth-47" value="" style="group" vertex="1" connectable="0" parent="1">
          <mxGeometry x="663" y="200" width="32.5" height="38.43" as="geometry" />
        </mxCell>
        <mxCell id="Tgi4yXNui1qYUQN6Xeth-44" value="" style="whiteSpace=wrap;html=1;aspect=fixed;" vertex="1" parent="Tgi4yXNui1qYUQN6Xeth-47">
          <mxGeometry width="32.5" height="32.5" as="geometry" />
        </mxCell>
        <mxCell id="Tgi4yXNui1qYUQN6Xeth-43" value="" style="html=1;verticalLabelPosition=bottom;align=center;labelBackgroundColor=#ffffff;verticalAlign=top;strokeWidth=2;strokeColor=#0080F0;shadow=0;dashed=0;shape=mxgraph.ios7.icons.data;" vertex="1" parent="Tgi4yXNui1qYUQN6Xeth-47">
          <mxGeometry x="1.4772727272727273" width="11.818181818181818" height="13.974545454545469" as="geometry" />
        </mxCell>
        <mxCell id="Tgi4yXNui1qYUQN6Xeth-45" value="" style="group" vertex="1" connectable="0" parent="Tgi4yXNui1qYUQN6Xeth-47">
          <mxGeometry x="13.295454545454547" y="12.877543636363654" width="17.727272727272727" height="25.00744909090909" as="geometry" />
        </mxCell>
        <mxCell id="Tgi4yXNui1qYUQN6Xeth-35" value="" style="image;aspect=fixed;html=1;points=[];align=center;fontSize=12;image=img/lib/azure2/general/Input_Output.svg;" vertex="1" parent="Tgi4yXNui1qYUQN6Xeth-45">
          <mxGeometry width="11.818181818181818" height="10.157727272727273" as="geometry" />
        </mxCell>
        <mxCell id="Tgi4yXNui1qYUQN6Xeth-37" value="" style="image;aspect=fixed;html=1;points=[];align=center;fontSize=12;image=img/lib/azure2/general/Input_Output.svg;rotation=-180;" vertex="1" parent="Tgi4yXNui1qYUQN6Xeth-45">
          <mxGeometry x="5.909090909090909" y="12.01112181818183" width="11.818181818181818" height="10.157727272727273" as="geometry" />
        </mxCell>
        <mxCell id="Tgi4yXNui1qYUQN6Xeth-42" value="" style="pointerEvents=1;shadow=0;dashed=0;html=1;strokeColor=none;fillColor=#4495D1;labelPosition=center;verticalLabelPosition=bottom;verticalAlign=top;align=center;outlineConnect=0;shape=mxgraph.veeam.cpu;" vertex="1" parent="Tgi4yXNui1qYUQN6Xeth-45">
          <mxGeometry x="-5.909090909090909" y="11.032903636363622" width="11.818181818181818" height="13.974545454545469" as="geometry" />
        </mxCell>
        <mxCell id="Tgi4yXNui1qYUQN6Xeth-48" value="1 RU" style="text;html=1;align=center;verticalAlign=middle;whiteSpace=wrap;rounded=0;" vertex="1" parent="1">
          <mxGeometry x="663" y="240" width="30.75" height="11.57" as="geometry" />
        </mxCell>
        <mxCell id="Tgi4yXNui1qYUQN6Xeth-49" value="Insert" style="text;html=1;align=center;verticalAlign=middle;whiteSpace=wrap;rounded=0;" vertex="1" parent="1">
          <mxGeometry x="560" y="280" width="60" height="30" as="geometry" />
        </mxCell>
        <mxCell id="Tgi4yXNui1qYUQN6Xeth-50" value="=" style="text;html=1;align=center;verticalAlign=middle;whiteSpace=wrap;rounded=0;" vertex="1" parent="1">
          <mxGeometry x="620" y="280" width="40" height="30" as="geometry" />
        </mxCell>
        <mxCell id="Tgi4yXNui1qYUQN6Xeth-51" value="" style="group" vertex="1" connectable="0" parent="1">
          <mxGeometry x="663" y="270" width="32.5" height="38.43" as="geometry" />
        </mxCell>
        <mxCell id="Tgi4yXNui1qYUQN6Xeth-52" value="" style="whiteSpace=wrap;html=1;aspect=fixed;" vertex="1" parent="Tgi4yXNui1qYUQN6Xeth-51">
          <mxGeometry width="32.5" height="32.5" as="geometry" />
        </mxCell>
        <mxCell id="Tgi4yXNui1qYUQN6Xeth-53" value="" style="html=1;verticalLabelPosition=bottom;align=center;labelBackgroundColor=#ffffff;verticalAlign=top;strokeWidth=2;strokeColor=#0080F0;shadow=0;dashed=0;shape=mxgraph.ios7.icons.data;" vertex="1" parent="Tgi4yXNui1qYUQN6Xeth-51">
          <mxGeometry x="1.4772727272727273" width="11.818181818181818" height="13.974545454545469" as="geometry" />
        </mxCell>
        <mxCell id="Tgi4yXNui1qYUQN6Xeth-54" value="" style="group" vertex="1" connectable="0" parent="Tgi4yXNui1qYUQN6Xeth-51">
          <mxGeometry x="13.295454545454547" y="12.877543636363654" width="17.727272727272727" height="25.00744909090909" as="geometry" />
        </mxCell>
        <mxCell id="Tgi4yXNui1qYUQN6Xeth-55" value="" style="image;aspect=fixed;html=1;points=[];align=center;fontSize=12;image=img/lib/azure2/general/Input_Output.svg;" vertex="1" parent="Tgi4yXNui1qYUQN6Xeth-54">
          <mxGeometry width="11.818181818181818" height="10.157727272727273" as="geometry" />
        </mxCell>
        <mxCell id="Tgi4yXNui1qYUQN6Xeth-56" value="" style="image;aspect=fixed;html=1;points=[];align=center;fontSize=12;image=img/lib/azure2/general/Input_Output.svg;rotation=-180;" vertex="1" parent="Tgi4yXNui1qYUQN6Xeth-54">
          <mxGeometry x="5.909090909090909" y="12.01112181818183" width="11.818181818181818" height="10.157727272727273" as="geometry" />
        </mxCell>
        <mxCell id="Tgi4yXNui1qYUQN6Xeth-57" value="" style="pointerEvents=1;shadow=0;dashed=0;html=1;strokeColor=none;fillColor=#4495D1;labelPosition=center;verticalLabelPosition=bottom;verticalAlign=top;align=center;outlineConnect=0;shape=mxgraph.veeam.cpu;" vertex="1" parent="Tgi4yXNui1qYUQN6Xeth-54">
          <mxGeometry x="-5.909090909090909" y="11.032903636363622" width="11.818181818181818" height="13.974545454545469" as="geometry" />
        </mxCell>
        <mxCell id="Tgi4yXNui1qYUQN6Xeth-59" value="" style="group" vertex="1" connectable="0" parent="1">
          <mxGeometry x="760" y="270" width="32.5" height="38.43" as="geometry" />
        </mxCell>
        <mxCell id="Tgi4yXNui1qYUQN6Xeth-60" value="" style="whiteSpace=wrap;html=1;aspect=fixed;" vertex="1" parent="Tgi4yXNui1qYUQN6Xeth-59">
          <mxGeometry width="32.5" height="32.5" as="geometry" />
        </mxCell>
        <mxCell id="Tgi4yXNui1qYUQN6Xeth-61" value="" style="html=1;verticalLabelPosition=bottom;align=center;labelBackgroundColor=#ffffff;verticalAlign=top;strokeWidth=2;strokeColor=#0080F0;shadow=0;dashed=0;shape=mxgraph.ios7.icons.data;" vertex="1" parent="Tgi4yXNui1qYUQN6Xeth-59">
          <mxGeometry x="1.4772727272727273" width="11.818181818181818" height="13.974545454545469" as="geometry" />
        </mxCell>
        <mxCell id="Tgi4yXNui1qYUQN6Xeth-62" value="" style="group" vertex="1" connectable="0" parent="Tgi4yXNui1qYUQN6Xeth-59">
          <mxGeometry x="13.295454545454547" y="12.877543636363654" width="17.727272727272727" height="25.00744909090909" as="geometry" />
        </mxCell>
        <mxCell id="Tgi4yXNui1qYUQN6Xeth-63" value="" style="image;aspect=fixed;html=1;points=[];align=center;fontSize=12;image=img/lib/azure2/general/Input_Output.svg;" vertex="1" parent="Tgi4yXNui1qYUQN6Xeth-62">
          <mxGeometry width="11.818181818181818" height="10.157727272727273" as="geometry" />
        </mxCell>
        <mxCell id="Tgi4yXNui1qYUQN6Xeth-64" value="" style="image;aspect=fixed;html=1;points=[];align=center;fontSize=12;image=img/lib/azure2/general/Input_Output.svg;rotation=-180;" vertex="1" parent="Tgi4yXNui1qYUQN6Xeth-62">
          <mxGeometry x="5.909090909090909" y="12.01112181818183" width="11.818181818181818" height="10.157727272727273" as="geometry" />
        </mxCell>
        <mxCell id="Tgi4yXNui1qYUQN6Xeth-65" value="" style="pointerEvents=1;shadow=0;dashed=0;html=1;strokeColor=none;fillColor=#4495D1;labelPosition=center;verticalLabelPosition=bottom;verticalAlign=top;align=center;outlineConnect=0;shape=mxgraph.veeam.cpu;" vertex="1" parent="Tgi4yXNui1qYUQN6Xeth-62">
          <mxGeometry x="-5.909090909090909" y="11.032903636363622" width="11.818181818181818" height="13.974545454545469" as="geometry" />
        </mxCell>
        <mxCell id="Tgi4yXNui1qYUQN6Xeth-67" value="&lt;font style=&quot;font-size: 14px;&quot;&gt;- - -&lt;/font&gt;" style="text;html=1;align=center;verticalAlign=middle;whiteSpace=wrap;rounded=0;" vertex="1" parent="1">
          <mxGeometry x="710" y="276.33000000000004" width="35.5" height="25.78" as="geometry" />
        </mxCell>
        <mxCell id="Tgi4yXNui1qYUQN6Xeth-68" value="Upsert" style="text;html=1;align=center;verticalAlign=middle;whiteSpace=wrap;rounded=0;" vertex="1" parent="1">
          <mxGeometry x="560" y="350" width="60" height="30" as="geometry" />
        </mxCell>
        <mxCell id="Tgi4yXNui1qYUQN6Xeth-69" value="=" style="text;html=1;align=center;verticalAlign=middle;whiteSpace=wrap;rounded=0;" vertex="1" parent="1">
          <mxGeometry x="620" y="350" width="40" height="30" as="geometry" />
        </mxCell>
        <mxCell id="Tgi4yXNui1qYUQN6Xeth-70" value="" style="group" vertex="1" connectable="0" parent="1">
          <mxGeometry x="663" y="340" width="32.5" height="38.43" as="geometry" />
        </mxCell>
        <mxCell id="Tgi4yXNui1qYUQN6Xeth-71" value="" style="whiteSpace=wrap;html=1;aspect=fixed;" vertex="1" parent="Tgi4yXNui1qYUQN6Xeth-70">
          <mxGeometry width="32.5" height="32.5" as="geometry" />
        </mxCell>
        <mxCell id="Tgi4yXNui1qYUQN6Xeth-72" value="" style="html=1;verticalLabelPosition=bottom;align=center;labelBackgroundColor=#ffffff;verticalAlign=top;strokeWidth=2;strokeColor=#0080F0;shadow=0;dashed=0;shape=mxgraph.ios7.icons.data;" vertex="1" parent="Tgi4yXNui1qYUQN6Xeth-70">
          <mxGeometry x="1.4772727272727273" width="11.818181818181818" height="13.974545454545469" as="geometry" />
        </mxCell>
        <mxCell id="Tgi4yXNui1qYUQN6Xeth-73" value="" style="group" vertex="1" connectable="0" parent="Tgi4yXNui1qYUQN6Xeth-70">
          <mxGeometry x="13.295454545454547" y="12.877543636363654" width="17.727272727272727" height="25.00744909090909" as="geometry" />
        </mxCell>
        <mxCell id="Tgi4yXNui1qYUQN6Xeth-74" value="" style="image;aspect=fixed;html=1;points=[];align=center;fontSize=12;image=img/lib/azure2/general/Input_Output.svg;" vertex="1" parent="Tgi4yXNui1qYUQN6Xeth-73">
          <mxGeometry width="11.818181818181818" height="10.157727272727273" as="geometry" />
        </mxCell>
        <mxCell id="Tgi4yXNui1qYUQN6Xeth-75" value="" style="image;aspect=fixed;html=1;points=[];align=center;fontSize=12;image=img/lib/azure2/general/Input_Output.svg;rotation=-180;" vertex="1" parent="Tgi4yXNui1qYUQN6Xeth-73">
          <mxGeometry x="5.909090909090909" y="12.01112181818183" width="11.818181818181818" height="10.157727272727273" as="geometry" />
        </mxCell>
        <mxCell id="Tgi4yXNui1qYUQN6Xeth-76" value="" style="pointerEvents=1;shadow=0;dashed=0;html=1;strokeColor=none;fillColor=#4495D1;labelPosition=center;verticalLabelPosition=bottom;verticalAlign=top;align=center;outlineConnect=0;shape=mxgraph.veeam.cpu;" vertex="1" parent="Tgi4yXNui1qYUQN6Xeth-73">
          <mxGeometry x="-5.909090909090909" y="11.032903636363622" width="11.818181818181818" height="13.974545454545469" as="geometry" />
        </mxCell>
        <mxCell id="Tgi4yXNui1qYUQN6Xeth-77" value="" style="group" vertex="1" connectable="0" parent="1">
          <mxGeometry x="760" y="340" width="32.5" height="38.43" as="geometry" />
        </mxCell>
        <mxCell id="Tgi4yXNui1qYUQN6Xeth-78" value="" style="whiteSpace=wrap;html=1;aspect=fixed;" vertex="1" parent="Tgi4yXNui1qYUQN6Xeth-77">
          <mxGeometry width="32.5" height="32.5" as="geometry" />
        </mxCell>
        <mxCell id="Tgi4yXNui1qYUQN6Xeth-79" value="" style="html=1;verticalLabelPosition=bottom;align=center;labelBackgroundColor=#ffffff;verticalAlign=top;strokeWidth=2;strokeColor=#0080F0;shadow=0;dashed=0;shape=mxgraph.ios7.icons.data;" vertex="1" parent="Tgi4yXNui1qYUQN6Xeth-77">
          <mxGeometry x="1.4772727272727273" width="11.818181818181818" height="13.974545454545469" as="geometry" />
        </mxCell>
        <mxCell id="Tgi4yXNui1qYUQN6Xeth-80" value="" style="group" vertex="1" connectable="0" parent="Tgi4yXNui1qYUQN6Xeth-77">
          <mxGeometry x="13.295454545454547" y="12.877543636363654" width="17.727272727272727" height="25.00744909090909" as="geometry" />
        </mxCell>
        <mxCell id="Tgi4yXNui1qYUQN6Xeth-81" value="" style="image;aspect=fixed;html=1;points=[];align=center;fontSize=12;image=img/lib/azure2/general/Input_Output.svg;" vertex="1" parent="Tgi4yXNui1qYUQN6Xeth-80">
          <mxGeometry width="11.818181818181818" height="10.157727272727273" as="geometry" />
        </mxCell>
        <mxCell id="Tgi4yXNui1qYUQN6Xeth-82" value="" style="image;aspect=fixed;html=1;points=[];align=center;fontSize=12;image=img/lib/azure2/general/Input_Output.svg;rotation=-180;" vertex="1" parent="Tgi4yXNui1qYUQN6Xeth-80">
          <mxGeometry x="5.909090909090909" y="12.01112181818183" width="11.818181818181818" height="10.157727272727273" as="geometry" />
        </mxCell>
        <mxCell id="Tgi4yXNui1qYUQN6Xeth-83" value="" style="pointerEvents=1;shadow=0;dashed=0;html=1;strokeColor=none;fillColor=#4495D1;labelPosition=center;verticalLabelPosition=bottom;verticalAlign=top;align=center;outlineConnect=0;shape=mxgraph.veeam.cpu;" vertex="1" parent="Tgi4yXNui1qYUQN6Xeth-80">
          <mxGeometry x="-5.909090909090909" y="11.032903636363622" width="11.818181818181818" height="13.974545454545469" as="geometry" />
        </mxCell>
        <mxCell id="Tgi4yXNui1qYUQN6Xeth-84" value="&lt;font style=&quot;font-size: 14px;&quot;&gt;- - -&lt;/font&gt;" style="text;html=1;align=center;verticalAlign=middle;whiteSpace=wrap;rounded=0;" vertex="1" parent="1">
          <mxGeometry x="710" y="346.33000000000004" width="35.5" height="25.78" as="geometry" />
        </mxCell>
        <mxCell id="Tgi4yXNui1qYUQN6Xeth-85" value="Delete" style="text;html=1;align=center;verticalAlign=middle;whiteSpace=wrap;rounded=0;" vertex="1" parent="1">
          <mxGeometry x="561" y="412" width="60" height="30" as="geometry" />
        </mxCell>
        <mxCell id="Tgi4yXNui1qYUQN6Xeth-86" value="=" style="text;html=1;align=center;verticalAlign=middle;whiteSpace=wrap;rounded=0;" vertex="1" parent="1">
          <mxGeometry x="621" y="412" width="40" height="30" as="geometry" />
        </mxCell>
        <mxCell id="Tgi4yXNui1qYUQN6Xeth-87" value="" style="group" vertex="1" connectable="0" parent="1">
          <mxGeometry x="664" y="402" width="32.5" height="38.43" as="geometry" />
        </mxCell>
        <mxCell id="Tgi4yXNui1qYUQN6Xeth-88" value="" style="whiteSpace=wrap;html=1;aspect=fixed;" vertex="1" parent="Tgi4yXNui1qYUQN6Xeth-87">
          <mxGeometry width="32.5" height="32.5" as="geometry" />
        </mxCell>
        <mxCell id="Tgi4yXNui1qYUQN6Xeth-89" value="" style="html=1;verticalLabelPosition=bottom;align=center;labelBackgroundColor=#ffffff;verticalAlign=top;strokeWidth=2;strokeColor=#0080F0;shadow=0;dashed=0;shape=mxgraph.ios7.icons.data;" vertex="1" parent="Tgi4yXNui1qYUQN6Xeth-87">
          <mxGeometry x="1.4772727272727273" width="11.818181818181818" height="13.974545454545469" as="geometry" />
        </mxCell>
        <mxCell id="Tgi4yXNui1qYUQN6Xeth-90" value="" style="group" vertex="1" connectable="0" parent="Tgi4yXNui1qYUQN6Xeth-87">
          <mxGeometry x="13.295454545454547" y="12.877543636363654" width="17.727272727272727" height="25.00744909090909" as="geometry" />
        </mxCell>
        <mxCell id="Tgi4yXNui1qYUQN6Xeth-91" value="" style="image;aspect=fixed;html=1;points=[];align=center;fontSize=12;image=img/lib/azure2/general/Input_Output.svg;" vertex="1" parent="Tgi4yXNui1qYUQN6Xeth-90">
          <mxGeometry width="11.818181818181818" height="10.157727272727273" as="geometry" />
        </mxCell>
        <mxCell id="Tgi4yXNui1qYUQN6Xeth-92" value="" style="image;aspect=fixed;html=1;points=[];align=center;fontSize=12;image=img/lib/azure2/general/Input_Output.svg;rotation=-180;" vertex="1" parent="Tgi4yXNui1qYUQN6Xeth-90">
          <mxGeometry x="5.909090909090909" y="12.01112181818183" width="11.818181818181818" height="10.157727272727273" as="geometry" />
        </mxCell>
        <mxCell id="Tgi4yXNui1qYUQN6Xeth-93" value="" style="pointerEvents=1;shadow=0;dashed=0;html=1;strokeColor=none;fillColor=#4495D1;labelPosition=center;verticalLabelPosition=bottom;verticalAlign=top;align=center;outlineConnect=0;shape=mxgraph.veeam.cpu;" vertex="1" parent="Tgi4yXNui1qYUQN6Xeth-90">
          <mxGeometry x="-5.909090909090909" y="11.032903636363622" width="11.818181818181818" height="13.974545454545469" as="geometry" />
        </mxCell>
        <mxCell id="Tgi4yXNui1qYUQN6Xeth-94" value="" style="group" vertex="1" connectable="0" parent="1">
          <mxGeometry x="761" y="402" width="32.5" height="38.43" as="geometry" />
        </mxCell>
        <mxCell id="Tgi4yXNui1qYUQN6Xeth-95" value="" style="whiteSpace=wrap;html=1;aspect=fixed;" vertex="1" parent="Tgi4yXNui1qYUQN6Xeth-94">
          <mxGeometry width="32.5" height="32.5" as="geometry" />
        </mxCell>
        <mxCell id="Tgi4yXNui1qYUQN6Xeth-96" value="" style="html=1;verticalLabelPosition=bottom;align=center;labelBackgroundColor=#ffffff;verticalAlign=top;strokeWidth=2;strokeColor=#0080F0;shadow=0;dashed=0;shape=mxgraph.ios7.icons.data;" vertex="1" parent="Tgi4yXNui1qYUQN6Xeth-94">
          <mxGeometry x="1.4772727272727273" width="11.818181818181818" height="13.974545454545469" as="geometry" />
        </mxCell>
        <mxCell id="Tgi4yXNui1qYUQN6Xeth-97" value="" style="group" vertex="1" connectable="0" parent="Tgi4yXNui1qYUQN6Xeth-94">
          <mxGeometry x="13.295454545454547" y="12.877543636363654" width="17.727272727272727" height="25.00744909090909" as="geometry" />
        </mxCell>
        <mxCell id="Tgi4yXNui1qYUQN6Xeth-98" value="" style="image;aspect=fixed;html=1;points=[];align=center;fontSize=12;image=img/lib/azure2/general/Input_Output.svg;" vertex="1" parent="Tgi4yXNui1qYUQN6Xeth-97">
          <mxGeometry width="11.818181818181818" height="10.157727272727273" as="geometry" />
        </mxCell>
        <mxCell id="Tgi4yXNui1qYUQN6Xeth-99" value="" style="image;aspect=fixed;html=1;points=[];align=center;fontSize=12;image=img/lib/azure2/general/Input_Output.svg;rotation=-180;" vertex="1" parent="Tgi4yXNui1qYUQN6Xeth-97">
          <mxGeometry x="5.909090909090909" y="12.01112181818183" width="11.818181818181818" height="10.157727272727273" as="geometry" />
        </mxCell>
        <mxCell id="Tgi4yXNui1qYUQN6Xeth-100" value="" style="pointerEvents=1;shadow=0;dashed=0;html=1;strokeColor=none;fillColor=#4495D1;labelPosition=center;verticalLabelPosition=bottom;verticalAlign=top;align=center;outlineConnect=0;shape=mxgraph.veeam.cpu;" vertex="1" parent="Tgi4yXNui1qYUQN6Xeth-97">
          <mxGeometry x="-5.909090909090909" y="11.032903636363622" width="11.818181818181818" height="13.974545454545469" as="geometry" />
        </mxCell>
        <mxCell id="Tgi4yXNui1qYUQN6Xeth-101" value="&lt;font style=&quot;font-size: 14px;&quot;&gt;- - -&lt;/font&gt;" style="text;html=1;align=center;verticalAlign=middle;whiteSpace=wrap;rounded=0;" vertex="1" parent="1">
          <mxGeometry x="711" y="408.33000000000004" width="35.5" height="25.78" as="geometry" />
        </mxCell>
        <mxCell id="Tgi4yXNui1qYUQN6Xeth-102" value="Query" style="text;html=1;align=center;verticalAlign=middle;whiteSpace=wrap;rounded=0;" vertex="1" parent="1">
          <mxGeometry x="562" y="477" width="60" height="30" as="geometry" />
        </mxCell>
        <mxCell id="Tgi4yXNui1qYUQN6Xeth-103" value="=" style="text;html=1;align=center;verticalAlign=middle;whiteSpace=wrap;rounded=0;" vertex="1" parent="1">
          <mxGeometry x="622" y="477" width="40" height="30" as="geometry" />
        </mxCell>
        <mxCell id="Tgi4yXNui1qYUQN6Xeth-104" value="" style="group" vertex="1" connectable="0" parent="1">
          <mxGeometry x="665" y="467" width="32.5" height="38.43" as="geometry" />
        </mxCell>
        <mxCell id="Tgi4yXNui1qYUQN6Xeth-105" value="" style="whiteSpace=wrap;html=1;aspect=fixed;" vertex="1" parent="Tgi4yXNui1qYUQN6Xeth-104">
          <mxGeometry width="32.5" height="32.5" as="geometry" />
        </mxCell>
        <mxCell id="Tgi4yXNui1qYUQN6Xeth-106" value="" style="html=1;verticalLabelPosition=bottom;align=center;labelBackgroundColor=#ffffff;verticalAlign=top;strokeWidth=2;strokeColor=#0080F0;shadow=0;dashed=0;shape=mxgraph.ios7.icons.data;" vertex="1" parent="Tgi4yXNui1qYUQN6Xeth-104">
          <mxGeometry x="1.4772727272727273" width="11.818181818181818" height="13.974545454545469" as="geometry" />
        </mxCell>
        <mxCell id="Tgi4yXNui1qYUQN6Xeth-107" value="" style="group" vertex="1" connectable="0" parent="Tgi4yXNui1qYUQN6Xeth-104">
          <mxGeometry x="13.295454545454547" y="12.877543636363654" width="17.727272727272727" height="25.00744909090909" as="geometry" />
        </mxCell>
        <mxCell id="Tgi4yXNui1qYUQN6Xeth-108" value="" style="image;aspect=fixed;html=1;points=[];align=center;fontSize=12;image=img/lib/azure2/general/Input_Output.svg;" vertex="1" parent="Tgi4yXNui1qYUQN6Xeth-107">
          <mxGeometry width="11.818181818181818" height="10.157727272727273" as="geometry" />
        </mxCell>
        <mxCell id="Tgi4yXNui1qYUQN6Xeth-109" value="" style="image;aspect=fixed;html=1;points=[];align=center;fontSize=12;image=img/lib/azure2/general/Input_Output.svg;rotation=-180;" vertex="1" parent="Tgi4yXNui1qYUQN6Xeth-107">
          <mxGeometry x="5.909090909090909" y="12.01112181818183" width="11.818181818181818" height="10.157727272727273" as="geometry" />
        </mxCell>
        <mxCell id="Tgi4yXNui1qYUQN6Xeth-110" value="" style="pointerEvents=1;shadow=0;dashed=0;html=1;strokeColor=none;fillColor=#4495D1;labelPosition=center;verticalLabelPosition=bottom;verticalAlign=top;align=center;outlineConnect=0;shape=mxgraph.veeam.cpu;" vertex="1" parent="Tgi4yXNui1qYUQN6Xeth-107">
          <mxGeometry x="-5.909090909090909" y="11.032903636363622" width="11.818181818181818" height="13.974545454545469" as="geometry" />
        </mxCell>
        <mxCell id="Tgi4yXNui1qYUQN6Xeth-111" value="" style="group" vertex="1" connectable="0" parent="1">
          <mxGeometry x="806" y="467" width="32.5" height="38.43" as="geometry" />
        </mxCell>
        <mxCell id="Tgi4yXNui1qYUQN6Xeth-112" value="" style="whiteSpace=wrap;html=1;aspect=fixed;" vertex="1" parent="Tgi4yXNui1qYUQN6Xeth-111">
          <mxGeometry width="32.5" height="32.5" as="geometry" />
        </mxCell>
        <mxCell id="Tgi4yXNui1qYUQN6Xeth-113" value="" style="html=1;verticalLabelPosition=bottom;align=center;labelBackgroundColor=#ffffff;verticalAlign=top;strokeWidth=2;strokeColor=#0080F0;shadow=0;dashed=0;shape=mxgraph.ios7.icons.data;" vertex="1" parent="Tgi4yXNui1qYUQN6Xeth-111">
          <mxGeometry x="1.4772727272727273" width="11.818181818181818" height="13.974545454545469" as="geometry" />
        </mxCell>
        <mxCell id="Tgi4yXNui1qYUQN6Xeth-114" value="" style="group" vertex="1" connectable="0" parent="Tgi4yXNui1qYUQN6Xeth-111">
          <mxGeometry x="13.295454545454547" y="12.877543636363654" width="17.727272727272727" height="25.00744909090909" as="geometry" />
        </mxCell>
        <mxCell id="Tgi4yXNui1qYUQN6Xeth-115" value="" style="image;aspect=fixed;html=1;points=[];align=center;fontSize=12;image=img/lib/azure2/general/Input_Output.svg;" vertex="1" parent="Tgi4yXNui1qYUQN6Xeth-114">
          <mxGeometry width="11.818181818181818" height="10.157727272727273" as="geometry" />
        </mxCell>
        <mxCell id="Tgi4yXNui1qYUQN6Xeth-116" value="" style="image;aspect=fixed;html=1;points=[];align=center;fontSize=12;image=img/lib/azure2/general/Input_Output.svg;rotation=-180;" vertex="1" parent="Tgi4yXNui1qYUQN6Xeth-114">
          <mxGeometry x="5.909090909090909" y="12.01112181818183" width="11.818181818181818" height="10.157727272727273" as="geometry" />
        </mxCell>
        <mxCell id="Tgi4yXNui1qYUQN6Xeth-117" value="" style="pointerEvents=1;shadow=0;dashed=0;html=1;strokeColor=none;fillColor=#4495D1;labelPosition=center;verticalLabelPosition=bottom;verticalAlign=top;align=center;outlineConnect=0;shape=mxgraph.veeam.cpu;" vertex="1" parent="Tgi4yXNui1qYUQN6Xeth-114">
          <mxGeometry x="-5.909090909090909" y="11.032903636363622" width="11.818181818181818" height="13.974545454545469" as="geometry" />
        </mxCell>
        <mxCell id="Tgi4yXNui1qYUQN6Xeth-118" value="&lt;font style=&quot;font-size: 14px;&quot;&gt;- - - - - - - -&lt;/font&gt;" style="text;html=1;align=center;verticalAlign=middle;whiteSpace=wrap;rounded=0;" vertex="1" parent="1">
          <mxGeometry x="712" y="473.33" width="78" height="25.78" as="geometry" />
        </mxCell>
        <mxCell id="Tgi4yXNui1qYUQN6Xeth-119" value="" style="endArrow=none;html=1;rounded=0;" edge="1" parent="1">
          <mxGeometry width="50" height="50" relative="1" as="geometry">
            <mxPoint x="676" y="507" as="sourcePoint" />
            <mxPoint x="826" y="507" as="targetPoint" />
            <Array as="points">
              <mxPoint x="676" y="527" />
              <mxPoint x="826" y="527" />
            </Array>
          </mxGeometry>
        </mxCell>
        <mxCell id="Tgi4yXNui1qYUQN6Xeth-120" value="Variable number of RUs" style="text;html=1;align=center;verticalAlign=middle;whiteSpace=wrap;rounded=0;" vertex="1" parent="1">
          <mxGeometry x="676" y="530" width="150" height="30" as="geometry" />
        </mxCell>
      </root>
    </mxGraphModel>
  </diagram>
</mxfile>
